<svg xmlns="http://www.w3.org/2000/svg" width="24" height="24" viewBox="0 0 24 24" shape-rendering="crispEdges"><rect x="10" y="4" width="2" height="1" fill="#626d6d"/><rect x="8" y="5" width="6" height="1" fill="#626d6d"/><rect x="6" y="6" width="4" height="1" fill="#626d6d"/><rect x="10" y="6" width="1" height="1" fill="#8f9890"/><rect x="11" y="6" width="5" height="1" fill="#626d6d"/><rect x="4" y="7" width="1" height="1" fill="#76504a"/><rect x="5" y="7" width="2" height="1" fill="#626d6d"/><rect x="7" y="7" width="5" height="1" fill="#8f9890"/><rect x="12" y="7" width="6" height="1" fill="#626d6d"/><rect x="2" y="8" width="2" height="1" fill="#76504a"/><rect x="5" y="8" width="1" height="1" fill="#626d6d"/><rect x="6" y="8" width="6" height="1" fill="#8f9890"/><rect x="12" y="8" width="7" height="1" fill="#626d6d"/><rect x="2" y="9" width="1" height="1" fill="#76504a"/><rect x="5" y="9" width="3" height="1" fill="#c7c4a2"/><rect x="8" y="9" width="7" height="1" fill="#343e43"/><rect x="15" y="9" width="4" height="1" fill="#626d6d"/><rect x="19" y="9" width="2" height="1" fill="#76504a"/><rect x="2" y="10" width="1" height="1" fill="#76504a"/><rect x="4" y="10" width="1" height="1" fill="#626d6d"/><rect x="5" y="10" width="1" height="1" fill="#c7c4a2"/><rect x="6" y="10" width="1" height="1" fill="#e3dfc1"/><rect x="7" y="10" width="1" height="1" fill="#c7c4a2"/><rect x="8" y="10" width="5" height="1" fill="#8f9890"/><rect x="13" y="10" width="2" height="1" fill="#626d6d"/><rect x="15" y="10" width="1" height="1" fill="#343e43"/><rect x="16" y="10" width="2" height="1" fill="#626d6d"/><rect x="18" y="10" width="3" height="1" fill="#9c967a"/><rect x="21" y="10" width="1" height="1" fill="#76504a"/><rect x="2" y="11" width="1" height="1" fill="#76504a"/><rect x="4" y="11" width="1" height="1" fill="#626d6d"/><rect x="5" y="11" width="3" height="1" fill="#c7c4a2"/><rect x="8" y="11" width="4" height="1" fill="#8f9890"/><rect x="12" y="11" width="3" height="1" fill="#626d6d"/><rect x="15" y="11" width="1" height="1" fill="#343e43"/><rect x="16" y="11" width="2" height="1" fill="#626d6d"/><rect x="18" y="11" width="3" height="1" fill="#9c967a"/><rect x="21" y="11" width="1" height="1" fill="#76504a"/><rect x="2" y="12" width="1" height="1" fill="#76504a"/><rect x="4" y="12" width="1" height="1" fill="#626d6d"/><rect x="5" y="12" width="3" height="1" fill="#c7c4a2"/><rect x="8" y="12" width="9" height="1" fill="#343e43"/><rect x="17" y="12" width="1" height="1" fill="#626d6d"/><rect x="18" y="12" width="3" height="1" fill="#9c967a"/><rect x="21" y="12" width="1" height="1" fill="#76504a"/><rect x="2" y="13" width="1" height="1" fill="#76504a"/><rect x="4" y="13" width="1" height="1" fill="#626d6d"/><rect x="5" y="13" width="3" height="1" fill="#c7c4a2"/><rect x="8" y="13" width="1" height="1" fill="#343e43"/><rect x="9" y="13" width="3" height="1" fill="#8f9890"/><rect x="12" y="13" width="6" height="1" fill="#626d6d"/><rect x="18" y="13" width="3" height="1" fill="#9c967a"/><rect x="21" y="13" width="1" height="1" fill="#76504a"/><rect x="3" y="14" width="1" height="1" fill="#76504a"/><rect x="5" y="14" width="1" height="1" fill="#626d6d"/><rect x="6" y="14" width="3" height="1" fill="#8f9890"/><rect x="9" y="14" width="1" height="1" fill="#343e43"/><rect x="10" y="14" width="1" height="1" fill="#8f9890"/><rect x="11" y="14" width="7" height="1" fill="#626d6d"/><rect x="18" y="14" width="3" height="1" fill="#9c967a"/><rect x="21" y="14" width="1" height="1" fill="#76504a"/><rect x="4" y="15" width="1" height="1" fill="#76504a"/><rect x="5" y="15" width="3" height="1" fill="#626d6d"/><rect x="8" y="15" width="1" height="1" fill="#8f9890"/><rect x="9" y="15" width="6" height="1" fill="#343e43"/><rect x="15" y="15" width="3" height="1" fill="#626d6d"/><rect x="21" y="15" width="1" height="1" fill="#76504a"/><rect x="5" y="16" width="1" height="1" fill="#76504a"/><rect x="6" y="16" width="11" height="1" fill="#626d6d"/><rect x="20" y="16" width="2" height="1" fill="#76504a"/><rect x="8" y="17" width="8" height="1" fill="#626d6d"/><rect x="18" y="17" width="2" height="1" fill="#76504a"/><rect x="12" y="18" width="3" height="1" fill="#626d6d"/></svg>