<svg xmlns="http://www.w3.org/2000/svg" width="24" height="24" viewBox="0 0 24 24" shape-rendering="crispEdges"><rect x="5" y="5" width="6" height="1" fill="#384b4b"/><rect x="4" y="6" width="1" height="1" fill="#384b4b"/><rect x="5" y="6" width="4" height="1" fill="#92ad93"/><rect x="9" y="6" width="8" height="1" fill="#384b4b"/><rect x="3" y="7" width="1" height="1" fill="#384b4b"/><rect x="4" y="7" width="3" height="1" fill="#92ad93"/><rect x="7" y="7" width="3" height="1" fill="#d2d1b0"/><rect x="10" y="7" width="2" height="1" fill="#92ad93"/><rect x="12" y="7" width="1" height="1" fill="#384b4b"/><rect x="13" y="7" width="2" height="1" fill="#9c967a"/><rect x="15" y="7" width="3" height="1" fill="#384b4b"/><rect x="2" y="8" width="1" height="1" fill="#384b4b"/><rect x="3" y="8" width="2" height="1" fill="#92ad93"/><rect x="5" y="8" width="2" height="1" fill="#d2d1b0"/><rect x="7" y="8" width="5" height="1" fill="#92ad93"/><rect x="12" y="8" width="1" height="1" fill="#384b4b"/><rect x="13" y="8" width="4" height="1" fill="#9c967a"/><rect x="17" y="8" width="2" height="1" fill="#384b4b"/><rect x="2" y="9" width="1" height="1" fill="#384b4b"/><rect x="3" y="9" width="9" height="1" fill="#92ad93"/><rect x="12" y="9" width="1" height="1" fill="#384b4b"/><rect x="13" y="9" width="2" height="1" fill="#9c967a"/><rect x="15" y="9" width="1" height="1" fill="#e3dfc1"/><rect x="16" y="9" width="2" height="1" fill="#9c967a"/><rect x="18" y="9" width="2" height="1" fill="#384b4b"/><rect x="2" y="10" width="1" height="1" fill="#384b4b"/><rect x="3" y="10" width="9" height="1" fill="#92ad93"/><rect x="12" y="10" width="1" height="1" fill="#384b4b"/><rect x="13" y="10" width="3" height="1" fill="#9c967a"/><rect x="16" y="10" width="2" height="1" fill="#e3dfc1"/><rect x="18" y="10" width="1" height="1" fill="#9c967a"/><rect x="19" y="10" width="2" height="1" fill="#384b4b"/><rect x="2" y="11" width="1" height="1" fill="#384b4b"/><rect x="3" y="11" width="8" height="1" fill="#92ad93"/><rect x="11" y="11" width="1" height="1" fill="#384b4b"/><rect x="12" y="11" width="6" height="1" fill="#9c967a"/><rect x="18" y="11" width="1" height="1" fill="#e3dfc1"/><rect x="19" y="11" width="2" height="1" fill="#384b4b"/><rect x="2" y="12" width="1" height="1" fill="#384b4b"/><rect x="3" y="12" width="8" height="1" fill="#92ad93"/><rect x="11" y="12" width="1" height="1" fill="#384b4b"/><rect x="12" y="12" width="6" height="1" fill="#9c967a"/><rect x="18" y="12" width="1" height="1" fill="#e3dfc1"/><rect x="19" y="12" width="2" height="1" fill="#384b4b"/><rect x="2" y="13" width="1" height="1" fill="#384b4b"/><rect x="3" y="13" width="8" height="1" fill="#92ad93"/><rect x="11" y="13" width="1" height="1" fill="#384b4b"/><rect x="12" y="13" width="6" height="1" fill="#9c967a"/><rect x="18" y="13" width="1" height="1" fill="#e3dfc1"/><rect x="19" y="13" width="1" height="1" fill="#384b4b"/><rect x="2" y="14" width="2" height="1" fill="#384b4b"/><rect x="4" y="14" width="7" height="1" fill="#92ad93"/><rect x="11" y="14" width="1" height="1" fill="#384b4b"/><rect x="12" y="14" width="6" height="1" fill="#9c967a"/><rect x="18" y="14" width="2" height="1" fill="#384b4b"/><rect x="3" y="15" width="2" height="1" fill="#384b4b"/><rect x="5" y="15" width="6" height="1" fill="#92ad93"/><rect x="11" y="15" width="1" height="1" fill="#384b4b"/><rect x="12" y="15" width="5" height="1" fill="#9c967a"/><rect x="17" y="15" width="3" height="1" fill="#384b4b"/><rect x="4" y="16" width="9" height="1" fill="#384b4b"/><rect x="13" y="16" width="3" height="1" fill="#9c967a"/><rect x="16" y="16" width="3" height="1" fill="#384b4b"/><rect x="5" y="17" width="9" height="1" fill="#384b4b"/><rect x="14" y="17" width="1" height="1" fill="#9c967a"/><rect x="15" y="17" width="3" height="1" fill="#384b4b"/><rect x="7" y="18" width="10" height="1" fill="#384b4b"/><rect x="12" y="19" width="4" height="1" fill="#384b4b"/></svg>