<svg xmlns="http://www.w3.org/2000/svg" width="24" height="24" viewBox="0 0 24 24" shape-rendering="crispEdges"><rect x="5" y="2" width="2" height="1" fill="#76504a"/><rect x="4" y="3" width="3" height="1" fill="#76504a"/><rect x="4" y="4" width="1" height="1" fill="#76504a"/><rect x="5" y="4" width="3" height="1" fill="#d2d1b0"/><rect x="3" y="5" width="2" height="1" fill="#76504a"/><rect x="5" y="5" width="3" height="1" fill="#d2d1b0"/><rect x="3" y="6" width="1" height="1" fill="#76504a"/><rect x="4" y="6" width="3" height="1" fill="#d2d1b0"/><rect x="3" y="7" width="1" height="1" fill="#76504a"/><rect x="4" y="7" width="2" height="1" fill="#d2d1b0"/><rect x="6" y="7" width="2" height="1" fill="#76504a"/><rect x="9" y="7" width="7" height="1" fill="#76504a"/><rect x="3" y="8" width="1" height="1" fill="#76504a"/><rect x="4" y="8" width="2" height="1" fill="#d2d1b0"/><rect x="6" y="8" width="5" height="1" fill="#76504a"/><rect x="11" y="8" width="3" height="1" fill="#92ad93"/><rect x="14" y="8" width="1" height="1" fill="#597d72"/><rect x="15" y="8" width="2" height="1" fill="#76504a"/><rect x="4" y="9" width="4" height="1" fill="#76504a"/><rect x="8" y="9" width="1" height="1" fill="#597d72"/><rect x="9" y="9" width="6" height="1" fill="#92ad93"/><rect x="15" y="9" width="1" height="1" fill="#597d72"/><rect x="16" y="9" width="2" height="1" fill="#76504a"/><rect x="5" y="10" width="2" height="1" fill="#76504a"/><rect x="7" y="10" width="1" height="1" fill="#597d72"/><rect x="8" y="10" width="8" height="1" fill="#92ad93"/><rect x="16" y="10" width="1" height="1" fill="#597d72"/><rect x="17" y="10" width="2" height="1" fill="#76504a"/><rect x="6" y="11" width="1" height="1" fill="#76504a"/><rect x="7" y="11" width="1" height="1" fill="#597d72"/><rect x="8" y="11" width="7" height="1" fill="#92ad93"/><rect x="15" y="11" width="2" height="1" fill="#597d72"/><rect x="17" y="11" width="3" height="1" fill="#76504a"/><rect x="6" y="12" width="4" height="1" fill="#597d72"/><rect x="10" y="12" width="3" height="1" fill="#92ad93"/><rect x="13" y="12" width="3" height="1" fill="#597d72"/><rect x="16" y="12" width="5" height="1" fill="#76504a"/><rect x="5" y="13" width="2" height="1" fill="#76504a"/><rect x="7" y="13" width="8" height="1" fill="#597d72"/><rect x="15" y="13" width="6" height="1" fill="#76504a"/><rect x="4" y="14" width="4" height="1" fill="#76504a"/><rect x="8" y="14" width="6" height="1" fill="#597d72"/><rect x="14" y="14" width="1" height="1" fill="#76504a"/><rect x="15" y="14" width="3" height="1" fill="#422f2c"/><rect x="18" y="14" width="3" height="1" fill="#76504a"/><rect x="4" y="15" width="5" height="1" fill="#76504a"/><rect x="9" y="15" width="2" height="1" fill="#597d72"/><rect x="11" y="15" width="3" height="1" fill="#76504a"/><rect x="14" y="15" width="1" height="1" fill="#422f2c"/><rect x="15" y="15" width="3" height="1" fill="#263437"/><rect x="18" y="15" width="1" height="1" fill="#422f2c"/><rect x="19" y="15" width="1" height="1" fill="#76504a"/><rect x="5" y="16" width="9" height="1" fill="#76504a"/><rect x="14" y="16" width="1" height="1" fill="#422f2c"/><rect x="15" y="16" width="3" height="1" fill="#263437"/><rect x="18" y="16" width="1" height="1" fill="#422f2c"/><rect x="19" y="16" width="1" height="1" fill="#76504a"/><rect x="6" y="17" width="1" height="1" fill="#76504a"/><rect x="7" y="17" width="1" height="1" fill="#a67559"/><rect x="8" y="17" width="7" height="1" fill="#76504a"/><rect x="15" y="17" width="3" height="1" fill="#422f2c"/><rect x="18" y="17" width="2" height="1" fill="#76504a"/><rect x="7" y="18" width="1" height="1" fill="#76504a"/><rect x="8" y="18" width="2" height="1" fill="#a67559"/><rect x="10" y="18" width="9" height="1" fill="#76504a"/><rect x="8" y="19" width="2" height="1" fill="#76504a"/><rect x="10" y="19" width="5" height="1" fill="#a67559"/><rect x="15" y="19" width="3" height="1" fill="#76504a"/><rect x="12" y="20" width="5" height="1" fill="#76504a"/></svg>