<svg xmlns="http://www.w3.org/2000/svg" width="24" height="24" viewBox="0 0 24 24" shape-rendering="crispEdges"><rect x="5" y="4" width="14" height="1" fill="#d1b880"/><rect x="5" y="5" width="14" height="1" fill="#7c6445"/><rect x="5" y="6" width="14" height="1" fill="#7c6445"/><rect x="6" y="7" width="2" height="1" fill="#7c6445"/><rect x="9" y="7" width="6" height="1" fill="#557f88"/><rect x="16" y="7" width="2" height="1" fill="#463b2c"/><rect x="6" y="8" width="2" height="1" fill="#7c6445"/><rect x="9" y="8" width="1" height="1" fill="#d1e0ce"/><rect x="10" y="8" width="3" height="1" fill="#cbbd99"/><rect x="13" y="8" width="1" height="1" fill="#557f88"/><rect x="16" y="8" width="2" height="1" fill="#463b2c"/><rect x="6" y="9" width="2" height="1" fill="#7c6445"/><rect x="10" y="9" width="1" height="1" fill="#d1e0ce"/><rect x="11" y="9" width="1" height="1" fill="#cbbd99"/><rect x="12" y="9" width="2" height="1" fill="#557f88"/><rect x="16" y="9" width="2" height="1" fill="#463b2c"/><rect x="6" y="10" width="2" height="1" fill="#7c6445"/><rect x="10" y="10" width="1" height="1" fill="#d1e0ce"/><rect x="11" y="10" width="1" height="1" fill="#557f88"/><rect x="12" y="10" width="1" height="1" fill="#cbbd99"/><rect x="16" y="10" width="2" height="1" fill="#463b2c"/><rect x="6" y="11" width="2" height="1" fill="#7c6445"/><rect x="10" y="11" width="1" height="1" fill="#d1e0ce"/><rect x="11" y="11" width="1" height="1" fill="#557f88"/><rect x="12" y="11" width="1" height="1" fill="#cbbd99"/><rect x="16" y="11" width="2" height="1" fill="#463b2c"/><rect x="6" y="12" width="2" height="1" fill="#7c6445"/><rect x="10" y="12" width="2" height="1" fill="#557f88"/><rect x="12" y="12" width="1" height="1" fill="#cbbd99"/><rect x="16" y="12" width="2" height="1" fill="#463b2c"/><rect x="6" y="13" width="2" height="1" fill="#7c6445"/><rect x="10" y="13" width="1" height="1" fill="#ccba87"/><rect x="11" y="13" width="1" height="1" fill="#557f88"/><rect x="12" y="13" width="1" height="1" fill="#cbbd99"/><rect x="13" y="13" width="1" height="1" fill="#557f88"/><rect x="16" y="13" width="2" height="1" fill="#463b2c"/><rect x="6" y="14" width="2" height="1" fill="#7c6445"/><rect x="10" y="14" width="3" height="1" fill="#e9d9a7"/><rect x="13" y="14" width="1" height="1" fill="#557f88"/><rect x="16" y="14" width="2" height="1" fill="#463b2c"/><rect x="6" y="15" width="2" height="1" fill="#7c6445"/><rect x="8" y="15" width="2" height="1" fill="#e9d9a7"/><rect x="10" y="15" width="3" height="1" fill="#a49266"/><rect x="13" y="15" width="2" height="1" fill="#e9d9a7"/><rect x="15" y="15" width="1" height="1" fill="#a49266"/><rect x="16" y="15" width="2" height="1" fill="#463b2c"/><rect x="6" y="16" width="2" height="1" fill="#7c6445"/><rect x="8" y="16" width="8" height="1" fill="#a49266"/><rect x="16" y="16" width="2" height="1" fill="#463b2c"/><rect x="6" y="17" width="2" height="1" fill="#7c6445"/><rect x="8" y="17" width="8" height="1" fill="#a49266"/><rect x="16" y="17" width="2" height="1" fill="#463b2c"/><rect x="5" y="18" width="14" height="1" fill="#463b2c"/><rect x="5" y="19" width="14" height="1" fill="#463b2c"/><rect x="5" y="20" width="14" height="1" fill="#463b2c"/></svg>