<svg xmlns="http://www.w3.org/2000/svg" width="24" height="24" viewBox="0 0 24 24" shape-rendering="crispEdges"><rect x="15" y="5" width="3" height="1" fill="#5b5750"/><rect x="11" y="6" width="4" height="1" fill="#5b5750"/><rect x="15" y="6" width="2" height="1" fill="#9c967a"/><rect x="17" y="6" width="2" height="1" fill="#5b5750"/><rect x="8" y="7" width="2" height="1" fill="#5b5750"/><rect x="10" y="7" width="7" height="1" fill="#e3dfc1"/><rect x="17" y="7" width="1" height="1" fill="#9c967a"/><rect x="18" y="7" width="2" height="1" fill="#5b5750"/><rect x="4" y="8" width="1" height="1" fill="#5b5750"/><rect x="5" y="8" width="5" height="1" fill="#9c967a"/><rect x="10" y="8" width="7" height="1" fill="#e3dfc1"/><rect x="17" y="8" width="2" height="1" fill="#9c967a"/><rect x="19" y="8" width="2" height="1" fill="#5b5750"/><rect x="2" y="9" width="1" height="1" fill="#5b5750"/><rect x="3" y="9" width="4" height="1" fill="#9c967a"/><rect x="7" y="9" width="5" height="1" fill="#e3dfc1"/><rect x="12" y="9" width="7" height="1" fill="#9c967a"/><rect x="19" y="9" width="3" height="1" fill="#5b5750"/><rect x="2" y="10" width="1" height="1" fill="#5b5750"/><rect x="3" y="10" width="1" height="1" fill="#9c967a"/><rect x="4" y="10" width="7" height="1" fill="#e3dfc1"/><rect x="11" y="10" width="5" height="1" fill="#9c967a"/><rect x="16" y="10" width="2" height="1" fill="#5b5750"/><rect x="18" y="10" width="2" height="1" fill="#c7c4a2"/><rect x="20" y="10" width="2" height="1" fill="#5b5750"/><rect x="2" y="11" width="1" height="1" fill="#5b5750"/><rect x="3" y="11" width="1" height="1" fill="#9c967a"/><rect x="4" y="11" width="4" height="1" fill="#e3dfc1"/><rect x="8" y="11" width="5" height="1" fill="#9c967a"/><rect x="13" y="11" width="2" height="1" fill="#5b5750"/><rect x="15" y="11" width="5" height="1" fill="#c7c4a2"/><rect x="20" y="11" width="1" height="1" fill="#5b5750"/><rect x="2" y="12" width="2" height="1" fill="#5b5750"/><rect x="4" y="12" width="7" height="1" fill="#9c967a"/><rect x="11" y="12" width="1" height="1" fill="#5b5750"/><rect x="12" y="12" width="8" height="1" fill="#c7c4a2"/><rect x="20" y="12" width="1" height="1" fill="#5b5750"/><rect x="2" y="13" width="4" height="1" fill="#5b5750"/><rect x="6" y="13" width="2" height="1" fill="#9c967a"/><rect x="8" y="13" width="1" height="1" fill="#5b5750"/><rect x="9" y="13" width="10" height="1" fill="#c7c4a2"/><rect x="19" y="13" width="2" height="1" fill="#5b5750"/><rect x="2" y="14" width="1" height="1" fill="#5b5750"/><rect x="3" y="14" width="1" height="1" fill="#e3dfc1"/><rect x="4" y="14" width="3" height="1" fill="#5b5750"/><rect x="7" y="14" width="12" height="1" fill="#c7c4a2"/><rect x="19" y="14" width="2" height="1" fill="#5b5750"/><rect x="2" y="15" width="2" height="1" fill="#5b5750"/><rect x="4" y="15" width="2" height="1" fill="#e3dfc1"/><rect x="6" y="15" width="1" height="1" fill="#5b5750"/><rect x="7" y="15" width="12" height="1" fill="#c7c4a2"/><rect x="19" y="15" width="1" height="1" fill="#5b5750"/><rect x="2" y="16" width="4" height="1" fill="#5b5750"/><rect x="6" y="16" width="1" height="1" fill="#e3dfc1"/><rect x="7" y="16" width="9" height="1" fill="#c7c4a2"/><rect x="16" y="16" width="4" height="1" fill="#5b5750"/><rect x="3" y="17" width="4" height="1" fill="#5b5750"/><rect x="7" y="17" width="1" height="1" fill="#e3dfc1"/><rect x="8" y="17" width="2" height="1" fill="#c7c4a2"/><rect x="10" y="17" width="7" height="1" fill="#5b5750"/><rect x="4" y="18" width="3" height="1" fill="#5b5750"/><rect x="7" y="18" width="1" height="1" fill="#e3dfc1"/><rect x="8" y="18" width="4" height="1" fill="#5b5750"/><rect x="5" y="19" width="2" height="1" fill="#5b5750"/></svg>