<svg xmlns="http://www.w3.org/2000/svg" width="24" height="24" viewBox="0 0 24 24" shape-rendering="crispEdges"><rect x="11" y="2" width="1" height="1" fill="#efcf90"/><rect x="12" y="2" width="2" height="1" fill="#9b713c"/><rect x="11" y="3" width="1" height="1" fill="#efcf90"/><rect x="12" y="3" width="2" height="1" fill="#9b713c"/><rect x="11" y="4" width="1" height="1" fill="#9b713c"/><rect x="12" y="4" width="1" height="1" fill="#efcf90"/><rect x="13" y="4" width="1" height="1" fill="#9b713c"/><rect x="11" y="5" width="1" height="1" fill="#9b713c"/><rect x="12" y="5" width="1" height="1" fill="#efcf90"/><rect x="13" y="5" width="1" height="1" fill="#9b713c"/><rect x="8" y="6" width="7" height="1" fill="#9b713c"/><rect x="8" y="7" width="3" height="1" fill="#caa568"/><rect x="11" y="7" width="3" height="1" fill="#9b713c"/><rect x="14" y="7" width="1" height="1" fill="#5e422d"/><rect x="8" y="8" width="3" height="1" fill="#caa568"/><rect x="11" y="8" width="3" height="1" fill="#9b713c"/><rect x="14" y="8" width="1" height="1" fill="#5e422d"/><rect x="15" y="8" width="1" height="1" fill="#9b713c"/><rect x="7" y="9" width="4" height="1" fill="#caa568"/><rect x="11" y="9" width="3" height="1" fill="#9b713c"/><rect x="14" y="9" width="2" height="1" fill="#5e422d"/><rect x="7" y="10" width="3" height="1" fill="#caa568"/><rect x="10" y="10" width="4" height="1" fill="#9b713c"/><rect x="14" y="10" width="2" height="1" fill="#5e422d"/><rect x="7" y="11" width="3" height="1" fill="#caa568"/><rect x="10" y="11" width="4" height="1" fill="#9b713c"/><rect x="14" y="11" width="2" height="1" fill="#5e422d"/><rect x="7" y="12" width="3" height="1" fill="#caa568"/><rect x="10" y="12" width="4" height="1" fill="#9b713c"/><rect x="14" y="12" width="2" height="1" fill="#5e422d"/><rect x="6" y="13" width="4" height="1" fill="#caa568"/><rect x="10" y="13" width="4" height="1" fill="#9b713c"/><rect x="14" y="13" width="3" height="1" fill="#5e422d"/><rect x="6" y="14" width="3" height="1" fill="#caa568"/><rect x="9" y="14" width="5" height="1" fill="#9b713c"/><rect x="14" y="14" width="3" height="1" fill="#5e422d"/><rect x="5" y="15" width="1" height="1" fill="#9b713c"/><rect x="6" y="15" width="2" height="1" fill="#caa568"/><rect x="8" y="15" width="7" height="1" fill="#9b713c"/><rect x="15" y="15" width="2" height="1" fill="#5e422d"/><rect x="17" y="15" width="1" height="1" fill="#9b713c"/><rect x="4" y="16" width="2" height="1" fill="#9b713c"/><rect x="6" y="16" width="1" height="1" fill="#caa568"/><rect x="7" y="16" width="2" height="1" fill="#5e422d"/><rect x="9" y="16" width="3" height="1" fill="#efcf90"/><rect x="12" y="16" width="2" height="1" fill="#9babaf"/><rect x="14" y="16" width="3" height="1" fill="#efcf90"/><rect x="17" y="16" width="1" height="1" fill="#5e422d"/><rect x="18" y="16" width="1" height="1" fill="#9b713c"/><rect x="3" y="17" width="2" height="1" fill="#9b713c"/><rect x="5" y="17" width="2" height="1" fill="#5e422d"/><rect x="7" y="17" width="2" height="1" fill="#efcf90"/><rect x="9" y="17" width="3" height="1" fill="#5e422d"/><rect x="12" y="17" width="2" height="1" fill="#9babaf"/><rect x="14" y="17" width="3" height="1" fill="#5e422d"/><rect x="17" y="17" width="2" height="1" fill="#efcf90"/><rect x="19" y="17" width="1" height="1" fill="#5e422d"/><rect x="3" y="18" width="1" height="1" fill="#9b713c"/><rect x="4" y="18" width="1" height="1" fill="#5e422d"/><rect x="5" y="18" width="2" height="1" fill="#efcf90"/><rect x="7" y="18" width="5" height="1" fill="#5e422d"/><rect x="12" y="18" width="2" height="1" fill="#9babaf"/><rect x="14" y="18" width="5" height="1" fill="#5e422d"/><rect x="19" y="18" width="1" height="1" fill="#efcf90"/><rect x="20" y="18" width="1" height="1" fill="#5e422d"/><rect x="4" y="19" width="1" height="1" fill="#9b713c"/><rect x="5" y="19" width="5" height="1" fill="#5e422d"/><rect x="10" y="19" width="2" height="1" fill="#64767c"/><rect x="12" y="19" width="8" height="1" fill="#5e422d"/><rect x="7" y="20" width="3" height="1" fill="#5e422d"/><rect x="10" y="20" width="2" height="1" fill="#64767c"/><rect x="12" y="20" width="6" height="1" fill="#5e422d"/></svg>