<svg xmlns="http://www.w3.org/2000/svg" viewBox="0 0 640 400" width="640" height="400" shape-rendering="crispEdges"><g id="far"><polygon id="outside-lost-vault" fill="#0d121a" points="275,0 640,0 640,75 604,82 574,77 548,101 506,112 463,94 417,81 380,59 326,53"/><polygon id="outside-lost-vault-facing" fill="#111922" points="334,0 566,0 557,29 519,40 493,65 469,70 429,47 377,43"/><polygon id="outside-lost-vault-break" fill="#080b10" points="455,0 472,0 458,24 462,31 451,49 436,44 444,25"/><polygon id="outside-buried-remote-wall" fill="#0d121a" points="555,56 640,35 640,342 601,330 581,291 568,251 578,225 563,204 550,159"/><polygon id="outside-remote-wall-lost-plane" fill="#111922" points="592,99 628,92 640,107 640,251 618,258 609,220 615,190 601,181"/><polygon id="outside-remote-wall-blind-recess" fill="#080b10" points="612,115 632,107 640,115 640,191 624,203 619,188 624,164"/><polygon id="outside-remote-bottom-mass" fill="#0d121a" points="345,331 411,297 449,283 491,292 526,267 559,281 591,316 640,336 640,400 321,400"/><polygon id="outside-remote-bottom-section" fill="#111922" points="423,323 452,312 493,323 526,302 540,307 532,320 501,342 468,331 439,343"/><polygon id="outside-remote-fallen-course" fill="#0d121a" points="347,141 378,146 401,165 423,171 449,192 482,206 519,207 551,215 572,204 585,226 555,233 519,220 478,219 445,206 420,186 395,179 373,157 345,154"/><polygon id="outside-remote-fallen-course-facing" fill="#111922" points="421,171 448,191 481,205 487,207 478,211 445,198 423,180"/><polygon id="outside-remote-hanging-member" fill="#0d121a" points="499,87 509,86 504,127 513,144 505,157 495,162 490,157 500,146 495,125"/><polygon id="outside-remote-hanging-break" fill="#111922" points="498,119 503,120 507,142 502,149 500,145 501,138"/></g>
<g id="middle"><polygon id="outside-buried-ceiling-bulk" fill="#0d121a" points="275,0 640,0 640,71 596,86 573,110 533,116 512,106 461,111 441,101 405,99 378,80 335,61 299,59"/><polygon id="outside-ceiling-downturned-plane" fill="#141e29" points="316,0 640,0 640,28 593,45 568,72 536,79 508,73 478,78 451,66 421,70 397,57 361,43 333,42"/><polygon id="outside-ceiling-shattered-edge" fill="#111922" points="333,42 361,43 397,57 421,70 451,66 478,78 508,73 536,79 568,72 593,45 640,28 640,48 602,62 581,86 548,96 520,94 482,98 447,86 414,88 382,72 350,59"/><polygon id="outside-ceiling-sole-exposure" fill="#19212c" points="363,38 383,42 406,55 419,61 441,58 456,62 455,66 421,69 398,57 378,49 363,45"/><polygon id="outside-ceiling-large-shear" fill="#080b10" points="469,0 502,0 497,18 483,25 488,43 480,58 491,78 483,98 461,111 442,99 449,86 455,78 448,62 456,42 462,24"/><polygon id="outside-ceiling-shear-thickness" fill="#111922" points="502,0 519,0 513,25 501,36 503,46 495,58 508,80 500,105 474,118 461,111 483,98 491,78 480,58 488,43 483,25 497,18"/><polygon id="outside-ceiling-pressure-tooth" fill="#141e29" points="428,61 445,65 451,82 448,94 437,90 438,82"/><polygon id="outside-ceiling-pressure-tooth-cut" fill="#19212c" points="428,61 433,62 443,71 448,87 446,90 438,78"/><polygon id="outside-ceiling-sheared-backing" fill="#0d121a" points="474,72 481,66 482,74 476,80 472,94 459,98 462,91 470,84"/><polygon id="outside-ceiling-lost-lamina" fill="#111922" points="552,3 640,3 640,17 596,32 570,58 551,66 548,62 566,48 580,26"/><polygon id="outside-ceiling-embedded-course" fill="#0d121a" points="355,13 412,33 445,32 449,36 409,38 353,18"/><polygon id="outside-ceiling-torn-socket" fill="#0d121a" points="383,47 395,49 403,57 414,60 415,64 400,61 391,56 382,54"/><polygon id="outside-distant-buttress-bulk" fill="#111922" points="598,39 640,27 640,400 563,400 553,374 546,334 528,313 544,291 554,259 545,232 552,210 547,182 559,153 566,117 584,97"/><polygon id="outside-distant-buttress-facing" fill="#141e29" points="607,60 640,49 640,310 606,330 584,320 576,286 588,257 577,228 584,202 577,179 591,149 590,125 607,101"/><polygon id="outside-distant-buttress-side" fill="#0d121a" points="598,39 607,60 607,101 590,125 591,149 577,179 584,202 577,228 588,257 576,286 584,320 563,340 547,333 528,313 544,291 554,259 545,232 552,210 547,182 559,153 566,117 584,97"/><polygon id="outside-buttress-bearing-scar" fill="#19212c" points="611,112 621,107 619,125 609,139 609,153 600,169 599,166 603,147 602,135"/><polygon id="outside-buttress-upper-blind-void" fill="#0d121a" points="609,184 640,164 640,225 627,237 611,227 612,209 605,203"/><polygon id="outside-buttress-upper-void-cheek" fill="#111922" points="609,184 615,180 614,199 620,205 619,225 628,230 627,237 611,227 612,209 605,203"/><polygon id="outside-buttress-lower-blind-void" fill="#0d121a" points="599,266 614,260 626,270 640,269 640,291 624,303 599,293 594,284"/><polygon id="outside-buttress-lower-lost-sill" fill="#111922" points="599,293 624,303 640,291 640,296 624,309 600,300"/><polygon id="outside-buttress-wide-cross-grain" fill="#111922" points="608,243 620,247 640,238 640,244 621,254 604,250"/><polygon id="outside-sunken-terrace-bulk" fill="#0d121a" points="333,373 389,338 435,330 472,315 509,326 536,319 583,340 640,350 640,400 330,400"/><polygon id="outside-sunken-terrace-upper" fill="#111922" points="365,369 397,345 438,340 473,324 509,335 536,327 579,349 616,354 604,362 568,355 534,340 510,349 473,337 441,352 402,355 375,376"/><polygon id="outside-sunken-terrace-fracture" fill="#141e29" points="397,345 438,340 459,331 467,332 444,345 403,352 384,366 380,366"/><polygon id="outside-sunken-terrace-fallen-face" fill="#111922" points="439,362 475,347 489,353 481,374 444,390 414,400 396,400 423,380"/><polygon id="outside-sunken-terrace-lost-bed" fill="#0d121a" points="458,373 481,363 480,369 455,381 435,390 431,389"/></g>
<g id="near"><polygon id="outside-rear-bearing-bulk" fill="#10161d" points="207,157 216,125 231,101 235,76 231,66 245,36 251,0 336,0 325,30 310,51 308,80 278,106 263,139 249,162"/><polygon id="outside-rear-bearing-facing" fill="#1a2330" points="216,153 226,122 240,101 245,76 240,66 254,35 261,0 312,0 302,29 286,54 286,75 264,99 254,126 237,156"/><polygon id="outside-rear-bearing-cut-cheek" fill="#293440" points="216,153 226,122 240,101 245,76 240,66 254,35 261,0 279,0 273,36 262,63 266,74 255,105 243,124 230,155"/><polygon id="outside-rear-bearing-upper-exposed-core" fill="#303c47" points="278,0 292,0 289,14 281,25 280,38 270,47 272,34"/><polygon id="outside-rear-bearing-upper-rupture" fill="#10161d" points="292,0 303,0 299,17 291,31 293,47 285,55 278,49 282,37 281,25 289,14"/><polygon id="outside-rear-bearing-upper-rupture-return" fill="#202b37" points="303,0 307,0 303,17 295,33 297,48 287,60 280,55 278,49 285,55 293,47 291,31 299,17"/><polygon id="outside-rear-bearing-open-cleft" fill="#10161d" points="276,73 285,74 279,84 269,91 266,105 257,115 253,112 259,102 260,88"/><polygon id="outside-rear-bearing-cleft-return" fill="#202b37" points="285,74 286,78 282,87 273,93 270,108 260,119 257,115 266,105 269,91 279,84"/><polygon id="outside-rear-bearing-spall" fill="#303c47" points="251,87 254,79 261,80 258,102 249,114 241,117 243,112 248,105"/><polygon id="outside-rear-bearing-spall-cut" fill="#10161d" points="256,89 259,85 257,101 252,106 251,102"/><polygon id="outside-rear-bearing-torn-bed" fill="#293440" points="253,44 260,43 256,53 259,63 256,68 248,63"/><polygon id="outside-rear-bearing-deep-shear" fill="#10161d" points="251,31 257,32 264,38 269,39 268,45 257,41 250,38"/><polygon id="outside-rear-bearing-embedded-tie" fill="#303c47" points="237,116 251,121 252,124 237,120"/><polygon id="outside-rear-restrained-junction" fill="#303941" points="213,139 230,137 241,145 241,156 230,162 212,157"/><polygon id="outside-rear-restrained-cap" fill="#3d4b55" points="214,139 221,135 243,142 238,146"/><polygon id="outside-rear-contact-rewrite" fill="#12302f" points="228,147 231,148 228,153 231,158 228,158 225,153"/><polygon id="outside-overhead-bulk" fill="#10161d" points="0,0 183,0 188,17 207,28 207,42 196,53 175,56 159,49 126,57 98,51 53,67 0,67"/><polygon id="outside-overhead-mineral-body" fill="#1a2330" points="0,0 160,0 177,16 196,28 191,40 173,42 160,37 128,44 98,38 53,55 0,55"/><polygon id="outside-overhead-exposed-section" fill="#293440" points="0,33 50,33 91,20 117,27 140,26 159,31 177,26 192,31 190,36 174,40 158,37 140,33 115,35 91,29 52,42 0,43"/><polygon id="outside-overhead-internal-shear" fill="#10161d" points="30,0 45,0 43,8 51,19 48,32 40,32 42,21 35,13"/><polygon id="outside-overhead-lost-bed" fill="#202b37" points="0,47 52,47 92,33 117,40 130,40 127,44 98,38 53,55 0,55"/><polygon id="outside-overhead-torn-lamina" fill="#1a2330" points="112,41 137,44 144,50 156,51 154,56 137,54 129,49 114,49"/><polygon id="outside-east-continuation-bulk" fill="#10161d" points="383,268 400,258 420,267 432,279 454,284 466,303 485,310 490,329 519,342 517,368 487,367 469,349 446,346 428,342 407,328 385,323"/><polygon id="outside-east-continuation-bearing" fill="#1a2330" points="394,273 405,268 421,277 432,290 450,294 460,310 479,317 479,335 495,344 495,350 475,349 463,337 445,334 428,332 410,318 394,311"/><polygon id="outside-east-continuation-upper-bed" fill="#293440" points="383,268 400,258 420,267 432,279 454,284 466,303 485,310 490,329 519,342 511,347 481,333 479,317 460,310 450,294 432,290 421,277 405,268 394,273"/><polygon id="outside-east-continuation-thick-belly" fill="#303c47" points="394,309 409,316 429,330 445,334 463,333 475,343 485,347 482,355 470,357 455,346 438,346 415,339 399,328 391,326"/><polygon id="outside-east-continuation-belly-return" fill="#1a2330" points="397,319 410,325 431,337 449,338 469,347 477,349 470,357 455,346 438,346 415,339 399,328"/><polygon id="outside-east-continuation-sheared-section" fill="#3d4b55" points="412,285 420,290 429,302 447,307 451,313 446,316 430,310 416,300 407,299"/><polygon id="outside-east-continuation-chamber" fill="#10161d" points="428,313 443,319 456,319 463,327 455,333 438,327 427,322"/><polygon id="outside-east-continuation-chamber-cheek" fill="#293440" points="428,313 433,315 432,320 438,323 455,329 455,333 438,327 427,322"/><polygon id="outside-east-continuation-delamination" fill="#10161d" points="433,281 444,284 451,284 456,292 450,293 446,288 436,287"/><polygon id="outside-east-continuation-broken-tie" fill="#202b37" points="460,321 469,323 475,334 473,340 470,338 471,334 466,327 460,326"/><polygon id="outside-east-continuation-cross-core-body" fill="#1a2330" points="442,302 457,305 470,317 467,332 452,341 437,333 432,322 438,314"/><polygon id="outside-east-continuation-cross-core-cut" fill="#293440" points="441,311 451,307 463,315 463,327 454,336 445,333 438,321"/><polygon id="outside-east-continuation-cross-core-cap" fill="#303c47" points="442,302 457,305 466,315 463,319 451,311 441,315 438,314"/><polygon id="outside-east-continuation-cross-core-shear" fill="#10161d" points="453,317 457,318 458,324 454,330 451,329 454,323"/><polygon id="outside-east-contact-rewrite-pocket" fill="#12302f" points="396,275 405,278 407,283 401,282 399,279 396,280"/><polygon id="outside-front-mass-bulk" fill="#10161d" points="640,180 610,211 590,230 578,265 550,287 545,329 516,357 491,400 640,400"/><polygon id="outside-front-mass-facing" fill="#1a2330" points="640,205 622,224 608,240 603,274 577,295 575,332 549,360 529,400 640,400"/><polygon id="outside-front-mass-cut-face" fill="#293440" points="640,180 610,211 590,230 578,265 550,287 545,329 516,357 491,400 533,400 547,374 568,352 581,325 577,304 606,283 612,252 634,230 640,229"/><polygon id="outside-front-mass-upper-break-bed" fill="#303c47" points="640,180 610,211 590,230 578,265 550,287 552,297 564,297 583,275 589,270 597,238 619,216 640,198"/><polygon id="outside-front-mass-exposed-mineral" fill="#303c47" points="566,297 577,282 584,279 582,295 573,309 572,329 561,343 553,344 560,326"/><polygon id="outside-front-mass-mineral-cleft" fill="#10161d" points="572,299 577,293 576,307 569,316 568,332 563,337 563,320"/><polygon id="outside-front-mass-shorn-crest" fill="#44515b" points="626,201 638,188 640,187 640,192 629,205 624,208"/><polygon id="outside-front-mass-upper-inclusion" fill="#202b37" points="607,231 616,222 615,234 609,240 607,252 601,261 600,256 604,245"/><polygon id="outside-front-mass-deep-fracture" fill="#10161d" points="548,319 557,315 563,320 568,319 575,309 582,307 583,320 575,333 568,338 558,330 546,331"/><polygon id="outside-front-mass-fracture-return" fill="#202b37" points="548,319 552,318 552,324 561,325 570,333 577,327 579,317 582,314 583,320 575,333 568,338 558,330 546,331"/><polygon id="outside-front-mass-lower-cut-section" fill="#303c47" points="517,357 527,350 539,353 540,365 536,373 539,381 530,400 515,400 522,385 517,380 525,366"/><polygon id="outside-front-mass-lower-cut-split" fill="#10161d" points="528,361 531,357 534,363 530,372 532,381 525,394 520,400 517,400 525,383 525,375"/><polygon id="outside-front-mass-broad-internal-cavity" fill="#10161d" points="622,287 640,278 640,362 628,360 608,373 596,366 602,344 593,330 602,307"/><polygon id="outside-front-mass-cavity-inside" fill="#1c202b" points="622,287 627,285 616,309 611,329 618,343 613,363 608,373 596,366 602,344 593,330 602,307"/><polygon id="outside-front-mass-cavity-lower-bed" fill="#202b37" points="608,373 628,360 640,362 640,370 629,368 609,382 598,377"/><polygon id="outside-front-mass-buried-offset" fill="#293440" points="571,379 582,369 588,374 584,387 593,400 576,400 568,393"/><polygon id="outside-front-mass-buried-offset-spall" fill="#303c47" points="571,379 576,374 580,376 576,383 579,391 573,389"/><polygon id="outside-west-buried-foot" fill="#10161d" points="0,316 26,323 46,341 73,351 88,370 120,379 144,400 0,400"/><polygon id="outside-west-foot-exposed-bed" fill="#1a2330" points="0,329 23,335 39,352 68,361 77,376 101,383 111,393 95,391 72,382 62,369 35,361 19,344 0,341"/><polygon id="outside-west-foot-mineral-return" fill="#202b37" points="0,336 19,341 36,359 62,367 67,374 60,372 33,365 15,348 0,345"/><polygon id="outside-west-foot-cleft" fill="#0d121a" points="20,348 28,350 32,359 29,363 23,355"/></g>
<g id="architecture"><polygon id="enclosure-load-envelope" fill="#1c202b" points="34,247 48,190 87,171 116,148 148,117 219,104 252,123 311,123 347,149 359,180 374,216 405,247 412,288 399,320 380,350 258,358 227,371 75,368 42,340 30,313"/><polygon id="west-enclosure-exterior" fill="#303c47" points="39,247 52,196 68,186 72,219 58,264 55,306 61,333 53,340 39,324 36,287"/><polygon id="west-inner-wall" fill="#474b49" points="63,206 80,194 106,205 111,238 102,267 57,277 52,304 46,302 49,262"/><polygon id="west-inner-foot-return" fill="#303941" points="57,263 103,255 106,267 58,279 54,310 50,312 51,279"/><polygon id="west-wall-ashlar-lower" fill="#4e5251" points="56,238 76,232 95,236 98,252 62,259 53,263"/><polygon id="west-wall-ashlar-upper" fill="#62615a" points="64,213 80,207 98,213 98,230 78,227 59,233"/><polygon id="west-inner-bed-joint" fill="#303736" points="58,234 77,228 98,231 98,235 76,232 57,238"/><polygon id="west-bearing-cut-top" fill="#4e575e" points="38,241 50,192 77,177 102,186 103,201 79,193 63,203 52,246"/><polygon id="west-coping-old-section" fill="#373d40" points="45,232 53,197 73,184 77,188 59,202 50,234"/><polygon id="west-compression-socket" fill="#151b23" points="39,253 48,250 55,255 55,269 46,275 38,269"/><polygon id="west-compression-pad" fill="#373d40" points="40,253 48,252 52,256 51,269 45,272 40,267"/><polygon id="west-socket-retainer" fill="#343b43" points="45,252 49,251 52,256 51,262 48,263 48,256"/><polygon id="core-bay-rear-mass" fill="#373d40" points="84,179 113,161 147,170 161,191 157,236 171,269 147,281 105,271 92,236"/><polygon id="core-bay-shadow-back" fill="#303d3e" points="103,190 123,181 146,190 150,217 145,244 154,267 116,273 109,245"/><polygon id="core-bay-deep-recess" fill="#2a3538" points="113,198 127,192 141,196 141,235 137,251 144,267 121,270 116,245"/><polygon id="core-bay-closed-back-upper-course" fill="#344041" points="114,202 127,197 139,201 139,213 116,216"/><polygon id="core-bay-closed-back-bed" fill="#202c30" points="116,216 139,213 139,215 116,218"/><polygon id="core-bay-closed-back-lower-course" fill="#303c3d" points="117,221 138,218 138,233 122,236 117,232"/><polygon id="core-bay-back-cross-bond" fill="#253034" points="126,198 128,198 129,212 127,214"/><polygon id="core-bay-left-cheek" fill="#4e5251" points="89,189 104,184 111,209 112,245 118,271 106,270 99,243 96,211"/><polygon id="core-bay-right-cheek" fill="#3d4b55" points="144,184 155,192 156,221 151,242 161,267 154,271 144,244 148,218"/><polygon id="core-bay-thick-top" fill="#4e5251" points="82,177 113,158 147,167 162,184 157,193 142,181 114,174 95,185"/><polygon id="core-bay-top-return" fill="#303941" points="96,185 114,174 142,181 153,190 149,196 140,188 118,183 105,190"/><polygon id="core-bay-cast-course" fill="#303736" points="96,221 110,223 111,227 97,226"/><polygon id="core-bay-lower-repair" fill="#4e4a47" points="101,249 111,253 114,264 110,267 104,264"/><polygon id="core-bay-constraint-seat" fill="#252c35" points="111,250 118,249 120,257 116,267 112,266"/><polygon id="core-bay-repaired-anchor" fill="#665347" points="112,253 116,253 117,258 115,262 112,260"/><polygon id="rear-west-bearing" fill="#373d40" points="121,151 151,126 217,114 237,133 239,166 229,176 162,184 149,202 144,182"/><polygon id="rear-west-plaster-face" fill="#62615a" points="157,139 190,132 207,135 218,147 217,168 163,176 151,187 151,153"/><polygon id="rear-west-coat-infill" fill="#585c59" points="157,151 177,146 197,149 211,144 215,153 211,166 166,173 153,185"/><polygon id="rear-west-wall-cap" fill="#4e5251" points="115,147 146,114 217,101 240,123 234,137 215,119 153,132 132,153"/><polygon id="rear-cap-mineral-top" fill="#4e575e" points="129,141 150,120 177,114 180,118 160,124 154,130 139,145"/><polygon id="rear-coping-underface" fill="#151b23" points="132,153 153,132 215,119 234,137 231,142 212,126 156,138 136,156"/><polygon id="rear-bearing-riser" fill="#303c47" points="216,118 234,128 242,144 239,169 230,176 218,168 222,151"/><polygon id="rear-bearing-socket" fill="#252c35" points="223,139 231,142 234,151 231,163 225,164 222,154"/><polygon id="rear-bearing-contact-pad" fill="#656962" points="224,143 229,144 231,152 229,159 225,157"/><polygon id="rear-bearing-bond" fill="#443a35" points="217,161 224,161 232,167 229,171 219,166"/><polygon id="rear-east-wall" fill="#303c47" points="239,142 268,145 309,142 335,161 346,191 334,202 310,182 271,185 229,176"/><polygon id="rear-east-plaster" fill="#585c59" points="245,152 267,156 307,152 326,165 332,184 310,175 273,179 240,173"/><polygon id="rear-east-old-coat" fill="#474b49" points="272,158 291,157 295,171 305,174 274,178 263,174"/><polygon id="rear-east-cap" fill="#454b50" points="237,130 269,133 310,130 338,150 350,179 343,188 331,160 307,145 267,147 241,143"/><polygon id="rear-east-cap-bearing-joint" fill="#303736" points="280,133 284,133 284,145 280,146"/><polygon id="rear-east-end-return" fill="#303941" points="331,160 343,168 351,187 343,214 333,229 332,207 337,199"/><polygon id="east-wall-body" fill="#303c47" points="343,199 363,211 386,235 402,254 408,290 396,319 382,330 378,326 395,302 385,265 360,257 349,275 337,271 342,241"/><polygon id="east-wall-inner-face" fill="#474b49" points="344,210 359,222 378,242 389,265 381,268 359,259 347,276 339,271 345,247"/><polygon id="east-wall-stone-inner" fill="#4e5251" points="350,219 359,227 372,243 380,260 359,252 350,259 350,248"/><polygon id="east-wall-cap-fold" fill="#4e575e" points="347,191 369,208 391,233 405,254 397,264 383,243 362,221 346,208"/><polygon id="east-fold-cut-face" fill="#303941" points="405,254 410,272 406,293 397,317 385,331 379,327 393,307 397,286 397,264"/><polygon id="east-wall-bearing-joint" fill="#252c35" points="391,263 402,267 405,278 400,288 391,283"/><polygon id="east-contact-bedded-heel" fill="#373d40" points="389,266 397,267 400,275 397,283 391,280"/><polygon id="east-contact-restraint" fill="#343b43" points="385,258 393,260 400,270 398,273 391,266 385,265"/><polygon id="east-wall-lower-ashlar" fill="#4e5251" points="393,292 401,290 398,308 388,321 383,322 391,307"/><polygon id="upper-west-return" fill="#303941" points="150,218 166,237 178,275 144,269 149,249"/><polygon id="upper-front-bearing" fill="#373d40" points="208,239 279,239 290,229 309,273 283,279 221,278"/><polygon id="upper-front-large-pier" fill="#474b49" points="220,244 256,244 256,274 230,274 221,270"/><polygon id="upper-front-cut-lintel" fill="#4e5251" points="208,239 279,239 289,231 292,239 281,247 212,247"/><polygon id="upper-front-lintel-soffit" fill="#151b23" points="219,247 278,247 283,244 286,250 280,254 220,253"/><polygon id="upper-front-east-pier" fill="#3d4b55" points="265,251 282,249 292,243 304,270 281,276 266,274"/><polygon id="upper-front-pier-bed" fill="#303941" points="221,269 256,271 256,275 230,277 222,273"/><polygon id="upper-front-old-repair" fill="#4e4a47" points="230,252 244,252 249,256 248,267 233,267 228,263"/><polygon id="upper-front-repair-bond" fill="#303736" points="229,251 244,251 248,253 247,255 232,254 230,261 227,260"/><polygon id="front-foundation-load-slab" fill="#303c47" points="51,316 76,340 223,341 256,334 378,326 385,339 261,348 227,357 74,355 46,331"/><polygon id="front-foundation-core" fill="#373d40" points="74,348 226,350 257,342 381,332 381,345 259,354 229,365 77,362 52,340 48,330"/><polygon id="front-foundation-bedding" fill="#303736" points="77,354 225,356 259,348 380,339 379,343 260,352 228,360 78,358"/><polygon id="west-underfloor-bearing" fill="#1c202b" points="61,349 100,358 111,380 100,393 72,382 58,366"/><polygon id="west-underfloor-bearing-face" fill="#373d40" points="68,353 95,360 102,378 97,385 77,378 67,366"/><polygon id="middle-foundation-toe" fill="#303941" points="191,358 228,358 242,368 235,384 207,391 192,380"/><polygon id="middle-foundation-toe-end" fill="#4e5251" points="223,360 239,368 233,377 213,383 209,378 226,372"/><polygon id="east-foundation-outward-return" fill="#303c47" points="345,338 380,332 397,319 410,325 402,342 378,352 347,355"/><polygon id="east-foundation-bearing-socket" fill="#151b23" points="374,343 393,333 402,331 399,339 379,350 370,352"/><polygon id="foundation-exposed-stone-core" fill="#544a44" points="121,351 164,351 170,356 165,362 126,361 116,357"/><polygon id="foundation-retained-mortar" fill="#434744" points="123,351 137,352 138,356 151,356 152,352 163,353 165,357 156,360 141,358 128,360 121,357"/><polygon id="foundation-long-rebar" fill="#252c35" points="120,355 147,355 166,357 166,359 146,357 120,357"/><polygon id="rear-west-vertical-pour-joint" fill="#303736" points="187,135 190,134 190,149 192,158 191,172 187,173 188,159 185,149"/><polygon id="rear-west-joint-lime" fill="#80796b" points="190,138 191,138 191,150 193,158 192,167 190,167 191,158"/><polygon id="rear-west-open-coat-loss" fill="#4e4a47" points="154,170 163,166 175,167 184,164 188,167 183,172 171,171 162,175 153,182"/><polygon id="rear-west-stone-show-through" fill="#656962" points="159,171 164,168 174,169 179,167 182,169 175,172 165,172 158,178"/><polygon id="rear-east-lower-coat-loss" fill="#4e4a47" points="274,168 281,168 286,171 296,169 303,172 308,171 308,177 289,179 275,176"/><polygon id="rear-east-lime-sliver" fill="#80796b" points="280,171 285,173 296,171 303,174 302,175 288,176 280,174"/><polygon id="west-wall-compression-repair" fill="#5c574c" points="63,244 67,242 73,243 72,247 65,250 59,253 59,250"/><polygon id="east-wall-diagonal-bond" fill="#303736" points="359,226 363,227 374,242 373,246 370,243 369,237 362,230"/><polygon id="east-wall-bond-aggregate" fill="#656962" points="363,231 366,233 368,238 367,239 363,235"/><polygon id="wall-lamp-mount" fill="#252c35" points="247,162 253,161 257,166 256,176 250,179 246,175"/><polygon id="wall-lamp-cast-shield" fill="#44413a" points="248,164 253,163 255,166 254,170 249,171 247,168"/><polygon id="wall-lamp-lower-return" fill="#343b43" points="248,170 254,169 254,175 249,177"/><polygon id="wall-lamp-aperture" fill="#b08b59" points="250,171 253,171 253,173 251,174 250,173"/><polygon id="wall-lamp-inner-light" fill="#dcc79c" points="251,171 253,171 253,172 251,172"/><polygon id="rear-cap-keyed-bed" fill="#303736" points="166,112 171,112 173,118 171,124 173,128 169,129 167,124 169,119"/><polygon id="rear-cap-key-cut-lip" fill="#656962" points="171,113 173,114 175,118 173,121 172,120 173,118"/><polygon id="rear-west-hidden-stone-bed" fill="#303736" points="157,161 168,159 177,160 183,158 184,161 176,163 166,162 157,164"/><polygon id="rear-west-stone-joint-tooth" fill="#4e5251" points="167,161 170,160 171,165 178,164 181,166 177,168 169,167"/><polygon id="rear-west-plaster-thin-lip" fill="#80796b" points="157,162 165,160 168,161 166,163 159,164 157,166"/><polygon id="core-niche-return-bed" fill="#151b23" points="99,206 108,208 109,211 101,209"/><polygon id="core-niche-return-bonded-edge" fill="#656962" points="100,203 102,204 103,207 107,208 108,211 104,211 101,208"/><polygon id="rear-lamp-ledger-seam" fill="#303736" points="259,163 270,165 282,163 283,166 270,168 259,166"/><polygon id="rear-lamp-ledger-cut" fill="#4e5251" points="261,167 270,169 282,167 286,169 285,172 270,172 263,170"/><polygon id="rear-ledger-left-stone-joint" fill="#303736" points="272,168 274,168 274,171 272,171"/><polygon id="east-fold-bonded-ashlar" fill="#373d40" points="351,232 355,231 362,237 366,245 362,247 356,240 351,238"/><polygon id="east-fold-ashlar-cut-face" fill="#656962" points="352,232 355,232 362,239 361,242 355,237 352,237"/><polygon id="east-fold-facing-mortar" fill="#303736" points="351,239 356,241 361,247 367,249 367,251 360,249 354,243 351,242"/><polygon id="terrace-lintel-key-joint" fill="#303736" points="245,240 247,240 247,243 252,243 252,247 249,247 249,245 245,245"/><polygon id="terrace-pier-return-exposed" fill="#4e5251" points="249,255 253,253 254,270 250,272 249,266"/></g>
<g id="floor"><polygon fill="#343d43" points="57,277 143,270 179,278 221,278 282,279 310,274 352,274 360,257 385,265 395,302 378,326 256,334 223,341 76,340 51,316"/><polygon fill="#424a4e" points="162,183 229,176 271,185 310,182 335,200 332,229 290,229 279,239 208,239 166,239 150,220 150,202"/><polygon fill="#4a585f" points="166,239 208,239 221,278 179,278"/><polygon fill="#4a585f" points="290,229 332,229 352,274 310,274"/><polygon id="main-west-retained-flags" fill="#4a4d48" points="58,281 91,278 108,283 103,307 68,313 57,305"/><polygon id="main-west-flag-open-joint" fill="#303736" points="60,300 80,297 82,298 104,294 104,296 82,300 60,302"/><polygon id="main-west-work-infill" fill="#434b4d" points="64,306 84,304 98,308 96,322 76,329 61,315"/><polygon id="main-west-compacted-use" fill="#4c504c" points="77,314 88,312 95,313 94,316 89,317 82,321 77,319 68,318 67,316"/><polygon id="main-core-heel-plate" fill="#434b4d" points="110,279 141,275 164,280 169,309 112,313 107,307"/><polygon id="main-core-front-repaired-pour" fill="#3b4346" points="119,317 155,316 171,309 184,318 183,333 161,337 116,335 111,330"/><polygon id="main-core-pour-trailing-edge" fill="#525855" points="118,329 126,331 148,331 160,329 169,330 167,333 158,332 149,334 125,334 117,332"/><polygon id="main-central-long-flag" fill="#3e484d" points="186,283 226,283 232,287 229,311 187,312 185,305"/><polygon id="main-central-flag-joint" fill="#303736" points="186,311 215,311 220,310 229,310 229,311 221,312 186,313"/><polygon id="main-front-continuous-bedding" fill="#3b4346" points="190,318 220,317 232,321 257,319 284,321 292,331 256,334 223,339 191,338"/><polygon id="main-right-retained-paving" fill="#4a4d48" points="239,284 274,283 281,290 280,309 238,311 237,308"/><polygon id="main-right-large-old-flag" fill="#434b4d" points="307,282 345,280 350,286 349,310 306,315 299,308 303,294"/><polygon id="main-right-paving-separated-bed" fill="#303736" points="307,283 309,283 305,295 302,307 308,313 306,314 299,308 302,293"/><polygon id="main-east-threshold-plate" fill="#3e484d" points="358,278 363,264 379,270 385,291 376,310 353,317 349,311 356,293"/><polygon id="main-east-wall-compaction" fill="#4c504c" points="380,291 386,291 389,302 379,316 366,321 358,320 376,313 384,301"/><polygon id="main-front-right-retained-course" fill="#3b4346" points="298,320 321,322 346,319 363,319 373,324 321,327 301,330"/><polygon id="main-central-traffic-polish" fill="#434b4d" points="201,286 214,285 222,290 218,294 213,294 208,300 201,300 196,297 199,295"/><polygon id="main-center-polish-break" fill="#3e484d" points="202,293 210,291 218,292 213,294 208,297 202,298"/><polygon id="main-to-purifier-use" fill="#434b4d" points="255,304 266,300 277,303 279,307 270,310 257,311 252,309"/><polygon id="main-east-paving-worn-nose" fill="#525855" points="356,312 366,310 375,304 375,307 367,314 357,315"/><polygon id="main-old-flag-small-fissure" fill="#293238" points="251,287 254,287 259,296 258,301 256,300 257,296"/><polygon id="upper-west-plinth-paving" fill="#4d514d" points="160,189 183,186 204,190 208,210 160,213 155,205"/><polygon id="upper-west-front-flag" fill="#4d5252" points="157,216 181,215 197,218 198,232 188,236 168,235"/><polygon id="upper-west-paving-bed" fill="#434744" points="163,215 181,213 198,216 197,219 183,217 165,218"/><polygon id="upper-middle-repaired-bed" fill="#4b4c48" points="213,184 229,180 255,186 260,194 259,214 215,215 209,200"/><polygon id="upper-middle-pour-joint" fill="#303736" points="211,187 213,187 212,201 215,211 214,214 210,201"/><polygon id="upper-middle-pour-edge" fill="#4b5252" points="215,201 219,211 226,214 239,216 239,218 224,216 217,213"/><polygon id="upper-middle-compressed-wear" fill="#4d5252" points="223,204 234,202 250,205 250,209 243,214 233,212 224,214 220,210"/><polygon id="upper-east-retained-flag" fill="#465157" points="270,191 309,187 326,202 324,219 273,217 268,204"/><polygon id="upper-east-bed-open-joint" fill="#303736" points="266,193 268,193 269,205 274,213 273,214 266,206"/><polygon id="upper-east-nose-plate" fill="#4b5252" points="305,223 321,220 329,221 329,226 306,228 298,227"/><polygon id="upper-front-working-band" fill="#4d5252" points="204,221 224,224 245,222 259,224 279,224 281,231 275,237 208,237 201,231"/><polygon id="upper-front-compacted-joint" fill="#434744" points="223,226 225,226 225,236 222,236"/><polygon id="upper-front-paving-broken-joint" fill="#434744" points="257,227 259,226 262,232 271,233 271,235 260,234"/><polygon id="upper-lamp-work-scuff" fill="#4b5252" points="242,186 247,185 253,188 255,193 253,195 249,191 244,191"/><polygon id="upper-rear-wall-contact" fill="#293238" points="162,183 229,176 271,185 310,182 335,200 334,204 309,185 271,188 229,179 164,186 153,203 153,219 150,220 150,202"/><polygon id="main-west-wall-contact" fill="#293238" points="57,277 61,279 55,314 77,336 94,337 94,340 76,340 51,316"/><polygon id="main-east-wall-contact" fill="#293238" points="352,274 360,257 385,265 395,302 378,326 376,323 390,301 382,269 362,262 355,277"/><polygon id="upper-front-support-contact" fill="#293238" points="222,279 283,280 304,276 304,279 283,283 223,282"/><polygon id="upper-west-retained-cross-bed" fill="#303736" points="160,206 175,207 177,206 202,208 201,210 180,209 175,210 161,208"/><polygon id="upper-middle-staggered-bed" fill="#434744" points="216,210 233,211 234,209 238,209 238,212 257,213 257,215 235,214 230,213 217,212"/><polygon id="upper-east-retained-cross-bed" fill="#434744" points="280,214 304,214 306,213 322,215 322,217 307,215 305,216 281,216"/><polygon id="upper-infill-corner-cut" fill="#303736" points="253,207 258,207 258,211 255,214 251,214 251,212 254,211"/><polygon id="upper-infill-corner-layer" fill="#525855" points="252,207 256,207 256,209 254,210 252,210"/><polygon id="upper-infill-compacted-tail" fill="#4b5252" points="247,215 251,214 254,215 254,216 250,217 245,217"/><polygon id="upper-front-bed-repair" fill="#4d514d" points="231,225 245,225 249,228 247,231 231,230"/><polygon id="upper-front-bed-repair-edge" fill="#434744" points="231,230 246,230 248,228 250,228 248,232 232,232"/><polygon id="main-central-paving-course" fill="#434744" points="187,309 228,308 235,306 250,307 279,305 279,307 251,309 235,308 229,310 187,311"/><polygon id="main-central-staggered-key" fill="#303736" points="208,285 210,285 210,290 211,293 210,299 208,299 209,293"/><polygon id="main-central-course-worn-lip" fill="#525855" points="215,311 229,310 234,309 234,311 229,312 216,313"/><polygon id="main-east-paving-broken-corner" fill="#303736" points="337,306 342,306 344,309 349,310 348,312 342,311 340,308 337,309"/><polygon id="main-east-paving-exposed-layer" fill="#525855" points="337,304 340,304 342,307 340,308 338,306 335,307"/><polygon id="main-core-front-sole-scrape" fill="#525855" points="183,323 189,322 195,323 201,322 202,323 196,325 190,324 184,325"/></g>
<g id="foreground"><polygon id="front-observation-slab-cut" fill="#4e5251" points="51,316 76,340 223,341 256,334 378,326 382,330 257,339 224,346 75,345 49,321"/><polygon id="front-cut-retained-west-top" fill="#454b50" points="55,322 77,342 129,342 129,344 77,344 53,324"/><polygon id="front-cut-retained-middle-top" fill="#4e575e" points="158,342 191,342 191,344 158,344"/><polygon id="front-cut-east-top-course" fill="#454b50" points="275,334 312,331 335,330 335,332 309,334 276,337"/><polygon id="front-cut-joint-one" fill="#303736" points="130,341 133,341 133,346 130,346"/><polygon id="front-cut-joint-two" fill="#303736" points="238,338 241,337 241,342 238,343"/><polygon id="front-cut-exposed-upper-core" fill="#656962" points="195,343 202,343 205,346 219,345 219,348 204,349 201,346 195,346"/><polygon id="front-cut-west-end-thickness" fill="#303941" points="49,321 76,345 77,351 52,329"/><polygon id="front-cut-central-thickness" fill="#373d40" points="77,345 224,346 224,350 78,350"/><polygon id="front-cut-eastern-return-thickness" fill="#303c47" points="257,339 382,330 380,334 258,343 224,350 224,346"/><polygon id="front-slab-bed-lap" fill="#303736" points="269,338 273,338 273,341 279,341 279,344 272,344 270,342"/><polygon id="front-slab-lap-exposed-core" fill="#656962" points="276,338 285,337 287,339 285,341 279,341"/></g></svg>